Go Bucks!!!!!!!!!!!!!!                                                                     

												

Please download the sample and determine if the quality meets your expectations.		

												

I do not think the quality is quite as good as the first half (seems less clear). I have 

no idea why.										   

                                                                          		 

Enjoy and please share.                                                                    

                                                                                           

Beat Cal!!!											

												

TTLTTLTTLTTLTTLTTLTTLTTLTTLTTLTTLTTLTTLTTLTTLTTL						

												

												

												

NCAA_OSU_VS_Central_Florida_2nd_Half_480p.HDTV.x264_TTL.mkv
Format                           : Matroska
File size                        : 789 MiB
Duration                         : 1h 7mn
Overall bit rate                 : 1 630 Kbps
Writing application              : HandBrake 0.9.5
Writing library                  : libmkv 0.6.4.1

Video
ID                               : 1
Format                           : AVC
Format/Info                      : Advanced Video Codec
Format profile                   : High@L3.0
Format settings, CABAC           : Yes
Format settings, ReFrames        : 4 frames
Muxing mode                      : Container profile=Unknown@3.0
Codec ID                         : V_MPEG4/ISO/AVC
Duration                         : 1h 7mn
Bit rate                         : 1 496 Kbps
Width                            : 624 pixels
Height                           : 352 pixels
Display aspect ratio             : 16:9
Frame rate mode                  : Variable
Frame rate                       : 29.970 fps
Color space                      : YUV
Chroma subsampling               : 4:2:0
Bit depth                        : 8 bits
Scan type                        : Progressive
Bits/(Pixel*Frame)               : 0.227
Stream size                      : 711 MiB (90%)
Writing library                  : x264 core 112

Audio
ID                               : 2
Format                           : AC-3
Format/Info                      : Audio Coding 3
Mode extension                   : CM (complete main)
Codec ID                         : A_AC3
Duration                         : 1h 7mn
Bit rate mode                    : Constant
Bit rate                         : 128 Kbps
Channel(s)                       : 2 channels
Channel positions                : Front: L R
Sampling rate                    : 48.0 KHz
Stream size                      : 61.9 MiB (8%)

